<svg id="_0162_career" xmlns="http://www.w3.org/2000/svg" viewBox="0 0 500 500" data-imageid="career-58" imageName="Career" class="illustrations_image" style="width: 188px;"><defs><style>.cls-1_career-58{fill:#fff;}.cls-2_career-58{opacity:.19;}.cls-2_career-58,.cls-3_career-58,.cls-4_career-58,.cls-5_career-58,.cls-6_career-58{fill:none;}.cls-7_career-58{fill:#f4a28c;}.cls-3_career-58{opacity:.46;}.cls-8_career-58{fill:#a5a5a5;}.cls-9_career-58{fill:#ce8172;}.cls-10_career-58{fill:#e6e6e6;}.cls-4_career-58{opacity:.03;}.cls-5_career-58{opacity:.08;}.cls-6_career-58{opacity:.31;}.cls-11_career-58{fill:#24285b;}.cls-12_career-58{fill:#000001;}.cls-13_career-58{fill:#ffd200;}.cls-14_career-58{fill:#68e1fd;}</style></defs><g id="sd_career-58" class="cls-4_career-58"><ellipse class="cls-12_career-58" cx="250" cy="451" rx="238.2" ry="18.46"/></g><g id="person_career-58"><path class="cls-11_career-58" d="m96.53,271.48h-2v-7.65c0-4.83-3.93-8.77-8.77-8.77h-9.15c-4.83,0-8.77,3.93-8.77,8.77v7.13h-2v-7.13c0-5.94,4.83-10.77,10.77-10.77h9.15c5.94,0,10.77,4.83,10.77,10.77v7.65Z"/><path class="cls-14_career-58 targetColor" d="m184.5,107.86c5.94,11.42,12.36,28.11,15.96,50.93,1.82,11.53,9.99,21.03,21.19,24.31l46.95,13.77-3.7,12.32-40.11-4.78c-34.26-4.08-63.31-28.23-72.04-61.62-2.93-11.21-3.46-22.78.65-33.39,5.28-13.63,24.35-14.51,31.09-1.54Z" style="fill: rgb(104, 225, 253);"/><g class="cls-5_career-58"><path class="cls-12_career-58" d="m184.5,107.86c5.94,11.42,12.36,28.11,15.96,50.93,1.82,11.53,9.99,21.03,21.19,24.31l46.95,13.77-3.7,12.32-40.11-4.78c-34.26-4.08-63.31-28.23-72.04-61.62-2.93-11.21-3.46-22.78.65-33.39,5.28-13.63,24.35-14.51,31.09-1.54Z"/></g><path class="cls-14_career-58 targetColor" d="m224.33,311.54s3.24,4.92,8.2,4.15c4.96-.77,7.39,3.68,3.32,5.98s-16.72-.6-16.72-.6l-1.75-9.01,6.95-.53Z" style="fill: rgb(104, 225, 253);"/><path class="cls-14_career-58 targetColor" d="m79.49,352.23s-2.81,5.17.21,9.19c3.01,4.02.23,8.25-3.71,5.74-3.95-2.51-7.35-15.03-7.35-15.03l7.12-5.79,3.74,5.88Z" style="fill: rgb(104, 225, 253);"/><path class="cls-7_career-58" d="m145.04,47.71s1.73,8.51.93,14.39c-.32,2.39-2.55,4.08-4.94,3.73-2.96-.44-6.83-1.9-8.3-6.35l-3.44-7.24s-2-4.61,2.47-8.67c4.47-4.05,12.48-1.1,13.27,4.14Z"/><polygon class="cls-7_career-58" points="129.91 53.56 128.65 81.98 144.37 81.56 138.97 61.04 129.91 53.56"/><path class="cls-7_career-58" d="m136.71,56.14s-.44-3.31-2.91-2.77c-2.47.54-1.86,5.33,1.59,5.39l1.32-2.62Z"/><path class="cls-7_career-58" d="m145.85,53.13l2.78,3.05c.69.75.36,1.97-.62,2.27l-3.23,1,1.06-6.31Z"/><g class="cls-6_career-58"><path class="cls-9_career-58" d="m140.35,65.48s-2.95-.26-5.39-2.44c0,0,.81,5.15,7.07,9.6l-1.68-7.17Z"/></g><path class="cls-11_career-58" d="m100.21,222.12s-6.26,27.13,12.22,32.41c8.55,2.44,28.86.7,48.21-1.87,24.42-3.25,46.96,13.62,50.85,37.94l3.35,20.94h9.31v-38.01c0-27.52-22.1-49.94-49.62-50.34l-74.32-1.07Z"/><path class="cls-11_career-58" d="m109.97,236.71l-4.48,29.45c-3.74,24.62-12.73,48.14-26.35,68.99l-8.09,12.37,10.04,6.55,4.48-4.31c24.96-24.01,43.59-53.82,54.24-86.78l6.69-20.71-36.53-5.55Z"/><path class="cls-11_career-58" d="m129.71,58l-3.03-11.62s-4.95-3.17-1.36-6.81c3.59-3.64,6.54-.69,9.48-5.9,2.94-5.21,8.47-3.08,9.62.39s9.08,2.34,7.48,7.44c-1.6,5.1-8.76,5.34-10.78,5.39-8.9.24-1.25,12.08-11.4,11.12Z"/><path class="cls-14_career-58 targetColor" d="m131.17,81.29l3.17-.56c14.62-2.59,29.88,1.42,40.67,11.61,4.19,3.96,8.02,9.02,10.79,15.49,11.09,25.87-21.63,115.21-21.63,115.21l-63.97-.92s-43.2-133.05,30.96-140.83Z" style="fill: rgb(104, 225, 253);"/><g class="cls-5_career-58"><path class="cls-12_career-58" d="m152.1,105.2s1.61,26.39-23.25,42.75c-24.87,16.37,3.45,75.09,3.45,75.09l-32.09-.92s-11.06-37.65-11.65-57.67c-.59-20.02,8.19-59.95,63.54-59.25Z"/></g><path class="cls-14_career-58 targetColor" d="m123.03,82.65c5.58-1.24,11.49-.8,16.65,1.66,5.94,2.84,11.99,8.72,12.42,20.88.87,24.33-88.74,9.12-67.64,138.19l-14.18,3.52S22.55,105.01,123.03,82.65Z" style="fill: rgb(104, 225, 253);"/><g class="cls-3_career-58"><path class="cls-1_career-58" d="m123.03,82.65c5.58-1.24,11.49-.8,16.65,1.66,5.94,2.84,11.99,8.72,12.42,20.88.87,24.33-88.74,9.12-67.64,138.19l-14.18,3.52S22.55,105.01,123.03,82.65Z"/></g><path class="cls-7_career-58" d="m73.4,246.14s1.03,12.21,6.66,12.56,12.67-2.46,4.4-15.31l-11.06,2.75Z"/><path class="cls-7_career-58" d="m268.01,198.85s9.39,1.1,12.55,7.17c3.17,6.07-15.12,1.38-15.12,1.38l2.56-8.55Z"/><rect class="cls-13_career-58" x="47.45" y="268.14" width="69.7" height="45.4"/><g class="cls-5_career-58"><path class="cls-12_career-58" d="m47.45,289.43s26.12,22.44,69.7,15.84v8.27H47.45v-24.11Z"/></g></g><g id="buildings_career-58"><rect class="cls-14_career-58 targetColor" x="400.69" y="38.81" width="7.67" height="124.8" style="fill: rgb(104, 225, 253);"/><rect class="cls-10_career-58" x="43.84" y="372.07" width="103.09" height="82.76"/><rect class="cls-10_career-58" x="146.93" y="322.96" width="103.09" height="131.87"/><rect class="cls-10_career-58" x="250.01" y="247.76" width="103.09" height="207.07"/><rect class="cls-10_career-58" x="352.25" y="168.31" width="103.09" height="286.53"/><rect class="cls-11_career-58" x="384.93" y="150.29" width="40.04" height="18.01"/><rect class="cls-13_career-58" x="322.45" y="38.81" width="78.24" height="57.65"/><circle class="cls-11_career-58" cx="361.57" cy="67.63" r="15.76"/><path class="cls-1_career-58" d="m362.23,57.83c.51,0,.67.18.67.69v1.1c2.06.29,3.25,1.32,4.12,3.11.27.54.16.83-.45,1.1l-1.1.49c-.51.25-.76.13-1.05-.4-.6-1.16-1.34-1.72-2.87-1.72-1.9,0-2.78.56-2.78,1.84,0,.83.76,1.34,1.55,1.5.38.09.92.18,1.61.25,1.25.11,1.88.2,2.98.58.56.2.99.43,1.32.72.63.58,1.19,1.7,1.19,3.13,0,2.44-1.63,4.1-4.52,4.52v1.16c0,.52-.16.69-.67.69h-1.23c-.52,0-.69-.18-.69-.69v-1.14c-2.24-.29-3.74-1.43-4.48-3.45-.18-.49,0-.83.52-1.03l1.1-.4c.56-.2.81-.07,1.05.49.49,1.25,1.5,1.88,3.02,1.88,2.06,0,3.09-.65,3.09-1.97,0-.69-.31-1.12-.96-1.39-.65-.25-1.21-.34-2.22-.43-1.23-.11-1.93-.25-3-.65-.54-.2-.96-.45-1.3-.74-.67-.6-1.21-1.68-1.21-3.04,0-2.42,1.52-4.03,4.39-4.41v-1.1c0-.52.18-.69.69-.69h1.23Z"/><rect class="cls-14_career-58 targetColor" x="384.93" y="401.98" width="40.04" height="52.85" style="fill: rgb(104, 225, 253);"/><g class="cls-2_career-58"><rect class="cls-8_career-58" x="374.71" y="189.04" width="11.36" height="185.43"/></g><g class="cls-2_career-58"><rect class="cls-8_career-58" x="400.55" y="189.04" width="11.36" height="185.43"/></g><g class="cls-2_career-58"><rect class="cls-8_career-58" x="426.39" y="189.04" width="11.36" height="185.43"/></g><g class="cls-2_career-58"><rect class="cls-8_career-58" x="330.97" y="247.76" width="21.28" height="207.07"/></g><g class="cls-2_career-58"><rect class="cls-8_career-58" x="228.31" y="323.31" width="21.28" height="131.52"/></g><g class="cls-2_career-58"><rect class="cls-8_career-58" x="124.83" y="373.74" width="21.28" height="81.09"/></g><g class="cls-3_career-58"><circle class="cls-1_career-58" cx="416.9" cy="434.18" r="3.35"/></g><g class="cls-5_career-58"><path class="cls-12_career-58" d="m400.55,57.83s-1.42,38.77-61.91,38.63h62.05l-.14-38.63Z"/></g></g></svg>